<svg width="360" height="360" viewBox="0 0 360 360" fill="none" xmlns="http://www.w3.org/2000/svg">
<path d="M276.738 111.743H290.295C293.055 111.743 295.747 112.197 298.301 113.085C300.969 114.017 303.349 115.538 305.375 117.629L305.377 117.631C307.228 119.533 308.739 121.931 309.849 124.782L310.064 125.358C311.135 128.334 311.701 131.937 311.701 136.117V161.305C311.701 162.163 311.822 162.856 312.036 163.428C312.257 164.018 312.551 164.409 312.793 164.677L312.812 164.699C313.775 165.728 314.876 166.498 316.189 167.021V167.02C317.447 167.522 318.736 167.879 320.047 168.069L320.609 168.14C321.342 168.219 322.035 168.289 322.653 168.336L322.984 168.36C325.539 168.714 327.5 170.934 327.5 173.541V185.933C327.5 188.651 325.369 190.95 322.655 191.15H322.653C322.035 191.197 321.342 191.266 320.609 191.345H320.608C319.117 191.507 317.628 191.892 316.189 192.465L316.185 192.466C314.889 192.988 313.774 193.756 312.806 194.805C312.221 195.435 311.701 196.417 311.701 198.191V223.526C311.701 227.697 311.135 231.31 310.054 234.284V234.285C308.996 237.201 307.563 239.632 305.801 241.555L305.444 241.933C303.459 243.972 301.071 245.474 298.341 246.41H298.34C295.767 247.293 292.907 247.743 289.846 247.743H276.728C273.846 247.743 271.5 245.396 271.5 242.507V230.306C271.5 227.418 273.846 225.071 276.728 225.071H281.649C283.948 225.071 285.1 224.724 285.646 224.481C286.236 224.218 286.906 223.811 287.297 223.252L287.31 223.234L287.322 223.214C287.674 222.678 287.892 222.118 287.979 221.457L287.98 221.458C288.112 220.475 288.173 219.544 288.173 218.688V195.116C288.173 191.104 288.793 188.056 289.955 185.728L289.956 185.725C290.937 183.75 292.137 182.151 293.508 180.939L294.773 179.82L293.513 178.696C292.136 177.469 290.935 175.877 289.956 173.906L289.744 173.459C288.717 171.181 288.173 168.275 288.173 164.505V140.786C288.173 139.93 288.111 138.999 287.979 138.016C287.9 137.345 287.659 136.771 287.327 136.273L287.313 136.253L287.3 136.233L287.14 136.032C286.742 135.581 286.185 135.251 285.682 135.016L285.67 135.01L285.657 135.005L285.423 134.909C284.806 134.68 283.672 134.415 281.661 134.415H276.738C273.857 134.414 271.511 132.068 271.511 129.179V116.978C271.511 114.09 273.857 111.743 276.738 111.743Z" stroke="#6D6D6D" stroke-width="3"/>
<path d="M70.1504 111.743H82.0918L82.1035 111.788H83.2754C86.1552 111.788 88.5 114.133 88.5 117.02V129.216C88.5 132.103 86.1552 134.449 83.2754 134.449H78.3545C76.3675 134.449 75.2146 134.7 74.5664 134.951L74.335 135.05C73.7964 135.302 73.0982 135.701 72.6963 136.297C72.3321 136.836 72.1123 137.404 72.0254 138.064C71.8942 139.055 71.833 139.985 71.833 140.83V164.393C71.833 168.413 71.2151 171.45 70.0518 173.79L70.0508 173.791C69.0701 175.765 67.8699 177.363 66.5 178.574L65.2344 179.694L66.4961 180.818C67.8579 182.031 69.0604 183.633 70.0537 185.611C71.2144 187.948 71.8223 190.982 71.8223 194.992V218.701C71.8223 219.335 71.8562 220.016 71.9287 220.735L72.0146 221.466C72.101 222.122 72.3186 222.687 72.6787 223.222V223.223C73.0795 223.825 73.7819 224.227 74.3232 224.48L74.3486 224.492C74.8941 224.735 76.0457 225.082 78.3438 225.082H83.2637C86.1436 225.082 88.4893 227.427 88.4893 230.314V242.51C88.4893 245.398 86.1436 247.743 83.2637 247.743H70.1504C67.3749 247.743 64.7345 247.34 62.2871 246.568L61.7998 246.409C59.0687 245.476 56.6591 243.944 54.625 241.856C52.6494 239.815 51.0632 237.233 49.9395 234.133L49.9385 234.13C48.8586 231.171 48.292 227.56 48.292 223.38V198.201C48.292 196.452 47.7468 195.478 47.1621 194.868H47.1631C46.1435 193.794 44.9695 193.02 43.6152 192.494L43.6133 192.493L43.0498 192.285C41.7344 191.82 40.4119 191.509 39.1074 191.358C38.4371 191.277 37.827 191.22 37.292 191.174H37.2881C34.5499 190.947 32.5 188.716 32.5 185.959V173.527C32.5 170.772 34.5597 168.538 37.2891 168.311H37.292C37.8277 168.266 38.437 168.207 39.1172 168.127L39.1182 168.128C40.6193 167.955 42.1333 167.573 43.625 166.991L43.626 166.992C44.9855 166.463 46.142 165.689 47.165 164.626L47.166 164.627C47.7686 164.002 48.3037 163.036 48.3037 161.285V135.961C48.3037 131.795 48.8382 128.198 49.8574 125.253L49.8584 125.251C50.9385 122.113 52.5084 119.525 54.5088 117.533L54.5117 117.53C56.5332 115.506 58.9355 114.011 61.6582 113.075L61.6592 113.076C64.2307 112.193 67.0906 111.743 70.1504 111.743Z" stroke="#6D6D6D" stroke-width="3"/>
<path d="M256.233 79.2284C255.437 83.4515 254.554 88.1765 255.004 92.4342C255.471 96.9169 257.133 99.8246 255.714 104.636C252.494 115.557 245.121 124.903 239.15 134.423C234.685 141.536 233.958 152.821 231.864 161.163C229.544 170.388 227.606 179.717 225.442 188.994C221.185 207.184 216.235 225.773 205.971 241.627C180.927 260.284 182.675 293.809 172.065 317.348C154.619 328.892 166.527 289.24 150.639 282.542C139.285 277.748 130.873 273.386 126.996 261.028C125.456 256.113 124.867 250.903 122.583 246.248C121.302 243.652 120.004 240.813 118.585 238.355C117.892 237.144 113.617 232.107 113.496 231.484C112.44 226.309 118.256 219.403 119.173 214.298C120.454 207.028 115.625 202.788 116.006 196.869C116.352 191.452 120.939 184.096 122.773 178.8C125.127 172.015 128.9 165.784 133.296 160.142C149.254 139.632 156.869 110.348 175.89 93.94C177.604 79.7477 188.715 65.7804 200.779 58.7188C205.937 55.7073 210.454 55.8804 215.975 54.0977C218.502 53.2842 220.648 52.4708 222.639 50.6188C224.525 48.8534 225.39 43.8688 227.052 42.7784C243.892 31.6842 246.212 57.2823 265.475 58.9784C279.01 66.5246 257.6 71.6131 256.267 79.2284H256.233Z" fill="#000095"/>
</svg>
