<svg width="24" height="24" viewBox="0 0 24 24" fill="none" xmlns="http://www.w3.org/2000/svg">
<path d="M6.17999 5.53002C6.35999 5.53002 6.48999 5.66002 6.48999 5.82002V6.80002C6.48999 6.97002 6.35999 7.09002 6.17999 7.09002H5.49999C5.36999 7.09002 5.26999 7.11002 5.22999 7.14002C5.17999 7.17002 5.13999 7.21002 5.10999 7.25002C5.08999 7.29002 5.06999 7.34002 5.05999 7.39002V9.83002C5.05999 10.09 5.00999 10.34 4.87999 10.54C4.76999 10.72 4.62999 10.87 4.46999 10.99C4.46999 10.99 4.44999 11.01 4.43999 11.01C4.43999 11.01 4.45999 11.01 4.46999 11.03C4.64999 11.15 4.78999 11.3 4.88999 11.5C5.00999 11.71 5.06999 11.99 5.06999 12.28V14.64C5.06999 14.64 5.09999 14.74 5.11999 14.78C5.14999 14.82 5.18999 14.86 5.23999 14.89C5.28999 14.91 5.36999 14.94 5.50999 14.94H6.18999C6.36999 14.94 6.49999 15.08 6.49999 15.23V16.21C6.49999 16.38 6.36999 16.5 6.18999 16.5H5.05999C4.86999 16.5 4.68999 16.46 4.47999 16.39C4.25999 16.31 4.05999 16.2 3.86999 16.05C3.66999 15.9 3.50999 15.71 3.36999 15.48C3.22999 15.24 3.14999 14.96 3.14999 14.66V12.43C3.14999 12.28 3.11999 12.2 3.07999 12.15C3.01999 12.06 2.94999 12 2.85999 11.96H2.84999C2.75999 11.91 2.65999 11.87 2.56999 11.85C2.44999 11.83 2.35999 11.82 2.29999 11.82C2.11999 11.82 1.98999 11.69 1.98999 11.53V10.5C1.98999 10.33 2.11999 10.21 2.29999 10.21C2.34999 10.21 2.43999 10.21 2.56999 10.18C2.66999 10.16 2.76999 10.13 2.86999 10.09C2.94999 10.05 3.02999 9.99002 3.08999 9.91002C3.12999 9.86002 3.15999 9.79002 3.15999 9.69002V7.37002C3.15999 7.07002 3.21999 6.78002 3.37999 6.55002C3.50999 6.33002 3.67999 6.14002 3.87999 5.99002L4.01999 5.88002C4.15999 5.78002 4.32999 5.70002 4.49999 5.65002C4.70999 5.58002 4.88999 5.54002 5.07999 5.54002H6.20999L6.17999 5.52002V5.53002ZM18.92 5.53002C19.11 5.53002 19.29 5.57002 19.5 5.64002C19.72 5.72002 19.92 5.84002 20.12 5.98002C20.32 6.13002 20.48 6.32002 20.62 6.54002C20.76 6.78002 20.84 7.06002 20.84 7.36002V9.59002C20.84 9.74002 20.87 9.82002 20.91 9.88002C20.97 9.96002 21.04 10.03 21.13 10.07C21.22 10.12 21.33 10.15 21.42 10.17C21.54 10.19 21.64 10.2 21.7 10.2C21.88 10.2 22.01 10.33 22.01 10.49V11.52C22.01 11.69 21.88 11.81 21.7 11.81C21.64 11.81 21.55 11.81 21.42 11.84C21.32 11.86 21.22 11.89 21.12 11.94H21.11C21.04 11.97 20.97 12.02 20.9 12.1C20.87 12.15 20.84 12.23 20.84 12.33V14.65C20.84 14.95 20.78 15.24 20.62 15.47C20.49 15.69 20.32 15.89 20.12 16.04C19.93 16.19 19.73 16.3 19.51 16.38C19.31 16.45 19.12 16.49 18.93 16.49H17.8C17.62 16.49 17.49 16.36 17.49 16.2V15.22C17.49 15.05 17.62 14.93 17.8 14.93H18.48C18.62 14.93 18.7 14.91 18.74 14.89L18.81 14.84C18.81 14.84 18.84 14.81 18.85 14.79C18.85 14.79 18.86 14.77 18.87 14.76C18.9 14.72 18.91 14.69 18.91 14.64V14.62C18.93 14.54 18.93 14.46 18.93 14.4V12.2C18.93 11.94 18.98 11.69 19.11 11.49C19.22 11.31 19.36 11.16 19.51 11.05C19.51 11.05 19.53 11.03 19.55 11.02C19.54 11.02 19.53 11.02 19.51 11C19.34 10.88 19.21 10.73 19.1 10.54C18.98 10.32 18.92 10.04 18.92 9.74002V7.61002C18.92 7.54002 18.92 7.46002 18.9 7.39002V7.37002C18.9 7.37002 18.88 7.29002 18.86 7.25002C18.86 7.25002 18.85 7.23002 18.84 7.22002C18.82 7.19002 18.8 7.16002 18.73 7.13002C18.73 7.13002 18.62 7.08002 18.48 7.08002H17.8C17.62 7.08002 17.49 6.95002 17.49 6.79002V5.81002C17.49 5.64002 17.62 5.52002 17.8 5.52002H18.93V5.55002L18.92 5.53002Z" fill="white"/>
<path d="M16.5599 5.16003C16.4999 5.45003 16.4499 5.77003 16.4799 6.06003C16.5099 6.37003 16.6099 6.57003 16.5199 6.89003C16.3099 7.63003 15.8399 8.27003 15.4599 8.92003C15.1699 9.41003 15.1299 10.18 14.9899 10.74C14.8499 11.36 14.7199 12.01 14.5799 12.63C14.3099 13.87 13.9899 15.13 13.3299 16.21C11.7299 17.48 11.8399 19.76 11.1599 21.36C10.0499 22.14 10.7999 19.45 9.7899 18.99C9.0699 18.66 8.5199 18.37 8.2799 17.52C8.1799 17.18 8.1499 16.83 7.9999 16.52C7.9199 16.34 7.8299 16.15 7.7399 15.98C7.6999 15.9 7.4199 15.56 7.4199 15.52C7.3499 15.17 7.7199 14.7 7.7899 14.35C7.8699 13.85 7.5699 13.57 7.5899 13.17C7.6099 12.8 7.8999 12.3 8.0199 11.94C8.1799 11.48 8.4099 11.05 8.6899 10.67C9.7099 9.28003 10.1999 7.28003 11.4099 6.17003C11.5199 5.21003 12.2299 4.26003 12.9999 3.77003C13.3299 3.57003 13.6199 3.58003 13.9699 3.45003C14.1399 3.40003 14.2699 3.34003 14.3899 3.22003C14.5099 3.10003 14.5699 2.77003 14.6699 2.68003C15.7499 1.93003 15.8899 3.66003 17.1299 3.78003C17.9999 4.30003 16.6299 4.64003 16.5399 5.15003L16.5599 5.16003Z" fill="white"/>
</svg>
