<svg width="208" height="208" viewBox="0 0 208 208" fill="none" xmlns="http://www.w3.org/2000/svg">
<path d="M201.18 92.22C200.65 92.18 200.05 92.12 199.4 92.05C198.19 91.92 196.99 91.61 195.81 91.14C194.83 90.75 194.01 90.18 193.28 89.4C193.01 89.1 192.65 88.57 192.65 87.29V64.85C192.65 61.01 192.13 57.64 191.11 54.81C190.05 51.89 188.54 49.41 186.63 47.45C184.68 45.44 182.38 43.97 179.8 43.07C177.38 42.23 174.83 41.8 172.22 41.8H160.13C156.82 41.8 154.13 44.49 154.13 47.8V58.67C154.13 61.98 156.82 64.67 160.13 64.67H164.52C166.44 64.67 167.27 64.96 167.54 65.08C167.99 65.29 168.31 65.52 168.46 65.73C168.66 66.03 168.79 66.35 168.83 66.72C168.94 67.54 168.99 68.31 168.99 69.01V90.14C168.99 93.85 169.56 96.78 170.72 99.11C171.66 101 172.83 102.56 174.2 103.78C172.83 104.99 171.66 106.56 170.72 108.45C169.56 110.77 168.99 113.71 168.99 117.41V138.41C168.99 139.11 168.94 139.88 168.83 140.7C168.78 141.08 168.66 141.39 168.45 141.71C168.31 141.91 167.98 142.15 167.53 142.35C167.26 142.47 166.43 142.76 164.51 142.76H160.12C156.81 142.76 154.12 145.45 154.12 148.76V159.63C154.12 162.94 156.81 165.63 160.12 165.63H171.82C174.68 165.63 177.38 165.21 179.83 164.37C182.46 163.47 184.77 162.02 186.69 160.05C188.56 158.13 190.04 155.68 191.1 152.76C192.13 149.93 192.65 146.55 192.65 142.72V120.15C192.65 118.87 193.01 118.33 193.28 118.04C194.01 117.25 194.84 116.68 195.81 116.29C196.99 115.82 198.2 115.51 199.4 115.38C200.05 115.31 200.65 115.25 201.18 115.21C204.3 114.98 206.74 112.35 206.74 109.23V98.19C206.74 95.07 204.3 92.44 201.18 92.21V92.22Z" fill="#FE0000"/>
<path d="M48.61 41.81H36.91C34.05 41.81 31.35 42.23 28.9 43.07C26.28 43.97 23.96 45.41 22.01 47.36C20.06 49.3 18.56 51.79 17.54 54.75C16.57 57.55 16.08 60.91 16.08 64.73V87.3C16.08 88.54 15.72 89.06 15.44 89.35C14.66 90.16 13.79 90.74 12.76 91.14C11.53 91.62 10.29 91.93 9.06998 92.07C8.47998 92.14 7.94998 92.19 7.47998 92.23C4.34998 92.49 1.97998 95.06 1.97998 98.21V109.29C1.97998 112.44 4.33998 115.01 7.47998 115.27C7.94998 115.31 8.47998 115.36 9.05998 115.43C10.27 115.57 11.51 115.88 12.75 116.36C13.78 116.76 14.66 117.34 15.43 118.15C15.7 118.43 16.07 118.96 16.07 120.2V142.64C16.07 146.48 16.59 149.86 17.62 152.68C18.68 155.6 20.19 158.07 22.1 160.04C24.06 162.05 26.39 163.53 29.03 164.43C31.48 165.26 34.13 165.69 36.91 165.69H48.61C51.92 165.69 54.61 163 54.61 159.69V148.82C54.61 145.51 51.92 142.82 48.61 142.82H44.22C42.3 142.82 41.47 142.53 41.2 142.41C40.75 142.2 40.42 141.97 40.28 141.76C40.07 141.45 39.95 141.14 39.9 140.76C39.79 139.93 39.74 139.16 39.74 138.47V117.34C39.74 113.64 39.18 110.71 38.02 108.38C37.07 106.49 35.9 104.92 34.54 103.71C35.91 102.5 37.08 100.93 38.02 99.04C39.18 96.71 39.75 93.78 39.75 90.07V69.07C39.75 68.38 39.8 67.61 39.91 66.78C39.96 66.4 40.08 66.09 40.29 65.78C40.43 65.57 40.76 65.34 41.21 65.13C41.48 65 42.31 64.72 44.23 64.72H48.62C51.93 64.72 54.62 62.03 54.62 58.72V47.85C54.62 44.54 51.93 41.85 48.62 41.85L48.61 41.81Z" fill="#FE0000"/>
<path d="M141.69 45.67C141.23 48.11 140.72 50.84 140.98 53.3C141.25 55.89 142.21 57.57 141.39 60.35C139.53 66.66 135.27 72.06 131.82 77.56C129.24 81.67 128.82 88.19 127.61 93.01C126.27 98.34 125.15 103.73 123.9 109.09C121.44 119.6 118.58 130.34 112.65 139.5C98.18 150.28 99.19 169.65 93.06 183.25C82.98 189.92 89.86 167.01 80.68 163.14C74.12 160.37 69.26 157.85 67.02 150.71C66.13 147.87 65.79 144.86 64.47 142.17C63.73 140.67 62.98 139.03 62.16 137.61C61.76 136.91 59.29 134 59.22 133.64C58.61 130.65 61.97 126.66 62.5 123.71C63.24 119.51 60.45 117.06 60.67 113.64C60.87 110.51 63.52 106.26 64.58 103.2C65.94 99.28 68.12 95.68 70.66 92.42C79.88 80.57 84.28 63.65 95.27 54.17C96.26 45.97 102.68 37.9 109.65 33.82C112.63 32.08 115.24 32.18 118.43 31.15C119.89 30.68 121.13 30.21 122.28 29.14C123.37 28.12 123.87 25.24 124.83 24.61C134.56 18.2 135.9 32.99 147.03 33.97C154.85 38.33 142.48 41.27 141.71 45.67H141.69Z" fill="#000095"/>
</svg>
