<svg width="1280" height="208" viewBox="0 0 1280 208" fill="none" xmlns="http://www.w3.org/2000/svg">
<g clip-path="url(#clip0_38_1319)">
<path d="M219.18 92.2201C218.65 92.1801 218.05 92.1201 217.4 92.0501C216.19 91.9201 214.99 91.61 213.81 91.14C212.83 90.75 212.01 90.1801 211.28 89.4001C211.01 89.1001 210.65 88.5701 210.65 87.2901V64.85C210.65 61.01 210.13 57.64 209.11 54.81C208.05 51.89 206.54 49.4101 204.63 47.4501C202.68 45.4401 200.38 43.97 197.8 43.07C195.38 42.23 192.83 41.8 190.22 41.8H178.13C174.82 41.8 172.13 44.49 172.13 47.8V58.67C172.13 61.98 174.82 64.67 178.13 64.67H182.52C184.44 64.67 185.27 64.9601 185.54 65.0801C185.99 65.2901 186.31 65.52 186.46 65.73C186.66 66.03 186.79 66.3501 186.83 66.7201C186.94 67.5401 186.99 68.31 186.99 69.01V90.14C186.99 93.85 187.56 96.7801 188.72 99.1101C189.66 101 190.83 102.56 192.2 103.78C190.83 104.99 189.66 106.56 188.72 108.45C187.56 110.77 186.99 113.71 186.99 117.41V138.41C186.99 139.11 186.94 139.88 186.83 140.7C186.78 141.08 186.66 141.39 186.45 141.71C186.31 141.91 185.98 142.15 185.53 142.35C185.26 142.47 184.43 142.76 182.51 142.76H178.12C174.81 142.76 172.12 145.45 172.12 148.76V159.63C172.12 162.94 174.81 165.63 178.12 165.63H189.82C192.68 165.63 195.38 165.21 197.83 164.37C200.46 163.47 202.77 162.02 204.69 160.05C206.56 158.13 208.04 155.68 209.1 152.76C210.13 149.93 210.65 146.55 210.65 142.72V120.15C210.65 118.87 211.01 118.33 211.28 118.04C212.01 117.25 212.84 116.68 213.81 116.29C214.99 115.82 216.2 115.51 217.4 115.38C218.05 115.31 218.65 115.25 219.18 115.21C222.3 114.98 224.74 112.35 224.74 109.23V98.1901C224.74 95.0701 222.3 92.44 219.18 92.21V92.2201Z" fill="#FE0000"/>
<path d="M66.61 41.8101H54.91C52.05 41.8101 49.35 42.2301 46.9 43.0701C44.28 43.9701 41.96 45.4101 40.01 47.3601C38.06 49.3001 36.56 51.7901 35.54 54.7501C34.57 57.5501 34.08 60.9101 34.08 64.7301V87.3001C34.08 88.5401 33.72 89.0601 33.44 89.3501C32.66 90.1601 31.79 90.7401 30.76 91.1401C29.53 91.6201 28.29 91.9301 27.07 92.0701C26.48 92.1401 25.95 92.1901 25.48 92.2301C22.35 92.4901 19.98 95.0601 19.98 98.2101V109.29C19.98 112.44 22.34 115.01 25.48 115.27C25.95 115.31 26.48 115.36 27.06 115.43C28.27 115.57 29.51 115.88 30.75 116.36C31.78 116.76 32.66 117.34 33.43 118.15C33.7 118.43 34.07 118.96 34.07 120.2V142.64C34.07 146.48 34.59 149.86 35.62 152.68C36.68 155.6 38.19 158.07 40.1 160.04C42.06 162.05 44.39 163.53 47.03 164.43C49.48 165.26 52.13 165.69 54.91 165.69H66.61C69.92 165.69 72.61 163 72.61 159.69V148.82C72.61 145.51 69.92 142.82 66.61 142.82H62.22C60.3 142.82 59.47 142.53 59.2 142.41C58.75 142.2 58.42 141.97 58.28 141.76C58.07 141.45 57.95 141.14 57.9 140.76C57.79 139.93 57.74 139.16 57.74 138.47V117.34C57.74 113.64 57.18 110.71 56.02 108.38C55.07 106.49 53.9 104.92 52.54 103.71C53.91 102.5 55.08 100.93 56.02 99.0401C57.18 96.7101 57.75 93.7801 57.75 90.0701V69.0701C57.75 68.3801 57.8 67.6101 57.91 66.7801C57.96 66.4001 58.08 66.0901 58.29 65.7801C58.43 65.5701 58.76 65.3401 59.21 65.1301C59.48 65.0001 60.31 64.7201 62.23 64.7201H66.62C69.93 64.7201 72.62 62.0301 72.62 58.7201V47.8501C72.62 44.5401 69.93 41.8501 66.62 41.8501L66.61 41.8101Z" fill="#FE0000"/>
<path d="M159.69 45.67C159.23 48.11 158.72 50.84 158.98 53.3C159.25 55.89 160.21 57.57 159.39 60.35C157.53 66.66 153.27 72.06 149.82 77.56C147.24 81.67 146.82 88.19 145.61 93.01C144.27 98.34 143.15 103.73 141.9 109.09C139.44 119.6 136.58 130.34 130.65 139.5C116.18 150.28 117.19 169.65 111.06 183.25C100.98 189.92 107.86 167.01 98.68 163.14C92.12 160.37 87.26 157.85 85.02 150.71C84.13 147.87 83.79 144.86 82.47 142.17C81.73 140.67 80.98 139.03 80.16 137.61C79.76 136.91 77.29 134 77.22 133.64C76.61 130.65 79.97 126.66 80.5 123.71C81.24 119.51 78.45 117.06 78.67 113.64C78.87 110.51 81.52 106.26 82.58 103.2C83.94 99.28 86.12 95.68 88.66 92.42C97.88 80.57 102.28 63.65 113.27 54.17C114.26 45.97 120.68 37.9 127.65 33.82C130.63 32.08 133.24 32.18 136.43 31.15C137.89 30.68 139.13 30.21 140.28 29.14C141.37 28.12 141.87 25.24 142.83 24.61C152.56 18.2 153.9 32.99 165.03 33.97C172.85 38.33 160.48 41.27 159.71 45.67H159.69Z" fill="#000095"/>
<path d="M326.39 148.33C320.39 148.33 314.89 146.65 309.89 143.29C304.89 139.93 300.91 135.03 297.95 128.59C294.99 122.15 293.51 114.29 293.51 105.01C293.51 95.73 294.99 87.87 297.95 81.43C300.91 74.99 304.89 70.09 309.89 66.73C314.89 63.37 320.39 61.69 326.39 61.69C331.43 61.69 336.03 62.77 340.19 64.93C344.35 67.09 347.93 70.21 350.93 74.29C353.93 78.37 356.11 83.37 357.47 89.29L343.19 93.13C342.15 87.53 340.11 83.27 337.07 80.35C334.03 77.43 330.59 75.97 326.75 75.97C323.55 75.97 320.65 77.03 318.05 79.15C315.45 81.27 313.39 84.47 311.87 88.75C310.35 93.03 309.59 98.45 309.59 105.01C309.59 111.57 310.35 116.89 311.87 121.21C313.39 125.53 315.45 128.75 318.05 130.87C320.65 132.99 323.55 134.05 326.75 134.05C330.59 134.05 334.03 132.59 337.07 129.67C340.11 126.75 342.15 122.49 343.19 116.89L357.47 120.73C356.11 126.57 353.93 131.55 350.93 135.67C347.93 139.79 344.35 142.93 340.19 145.09C336.03 147.25 331.43 148.33 326.39 148.33Z" fill="black"/>
<path d="M394.43 148.21C388.67 148.21 383.47 146.83 378.83 144.07C374.19 141.31 370.51 137.55 367.79 132.79C365.07 128.03 363.71 122.69 363.71 116.77C363.71 110.85 365.07 105.63 367.79 100.87C370.51 96.11 374.19 92.35 378.83 89.59C383.47 86.83 388.67 85.45 394.43 85.45C400.19 85.45 405.49 86.83 410.09 89.59C414.69 92.35 418.35 96.11 421.07 100.87C423.79 105.63 425.15 110.93 425.15 116.77C425.15 122.61 423.79 128.03 421.07 132.79C418.35 137.55 414.69 141.31 410.09 144.07C405.49 146.83 400.27 148.21 394.43 148.21ZM394.43 135.37C397.55 135.37 400.31 134.57 402.71 132.97C405.11 131.37 406.99 129.17 408.35 126.37C409.71 123.57 410.39 120.41 410.39 116.89C410.39 113.37 409.71 110.11 408.35 107.35C406.99 104.59 405.11 102.41 402.71 100.81C400.31 99.21 397.55 98.41 394.43 98.41C391.31 98.41 388.55 99.21 386.15 100.81C383.75 102.41 381.87 104.59 380.51 107.35C379.15 110.11 378.47 113.29 378.47 116.89C378.47 120.49 379.15 123.57 380.51 126.37C381.87 129.17 383.75 131.37 386.15 132.97C388.55 134.57 391.31 135.37 394.43 135.37Z" fill="black"/>
<path d="M459.59 147.97C454.55 147.97 449.97 146.59 445.85 143.83C441.73 141.07 438.45 137.33 436.01 132.61C433.57 127.89 432.35 122.61 432.35 116.77C432.35 110.93 433.57 105.55 436.01 100.87C438.45 96.19 441.75 92.47 445.91 89.71C450.07 86.95 454.71 85.57 459.83 85.57C462.95 85.57 465.85 86.17 468.53 87.37C471.21 88.57 473.59 90.29 475.67 92.53V60.97L490.79 58.57V147.01H476.15V140.29C474.07 142.77 471.63 144.67 468.83 145.99C466.03 147.31 462.95 147.97 459.59 147.97ZM463.19 135.73C465.67 135.73 467.99 135.25 470.15 134.29C472.31 133.33 474.15 131.97 475.67 130.21V103.33C474.15 101.57 472.29 100.21 470.09 99.25C467.89 98.29 465.59 97.81 463.19 97.81C459.99 97.81 457.19 98.61 454.79 100.21C452.39 101.81 450.51 104.03 449.15 106.87C447.79 109.71 447.11 113.01 447.11 116.77C447.11 120.53 447.79 123.73 449.15 126.61C450.51 129.49 452.39 131.73 454.79 133.33C457.19 134.93 459.99 135.73 463.19 135.73Z" fill="black"/>
<path d="M534.11 148.21C528.11 148.21 522.71 146.83 517.91 144.07C513.11 141.31 509.31 137.55 506.51 132.79C503.71 128.03 502.31 122.69 502.31 116.77C502.31 110.85 503.65 105.53 506.33 100.81C509.01 96.09 512.63 92.35 517.19 89.59C521.75 86.83 526.91 85.45 532.67 85.45C538.43 85.45 543.85 86.81 548.45 89.53C553.05 92.25 556.65 95.97 559.25 100.69C561.85 105.41 563.15 110.81 563.15 116.89V120.49H517.07C517.63 123.53 518.71 126.21 520.31 128.53C521.91 130.85 523.97 132.65 526.49 133.93C529.01 135.21 531.79 135.85 534.83 135.85C537.87 135.85 540.67 135.29 543.23 134.17C545.79 133.05 547.95 131.45 549.71 129.37L559.55 138.13C555.95 141.65 552.07 144.21 547.91 145.81C543.75 147.41 539.15 148.21 534.11 148.21ZM517.31 111.37H548.87C548.39 108.49 547.41 106.03 545.93 103.99C544.45 101.95 542.61 100.37 540.41 99.25C538.21 98.13 535.71 97.57 532.91 97.57C530.35 97.57 527.97 98.13 525.77 99.25C523.57 100.37 521.75 101.95 520.31 103.99C518.87 106.03 517.87 108.49 517.31 111.37Z" fill="black"/>
<path d="M628.55 147.01V98.29H609.59V86.41H628.55V78.01C628.55 63.21 636.95 55.81 653.75 55.81C656.07 55.81 658.57 56.03 661.25 56.47C663.93 56.91 666.39 57.49 668.63 58.21V71.05C665.67 70.01 663.13 69.35 661.01 69.07C658.89 68.79 656.75 68.65 654.59 68.65C650.75 68.65 647.95 69.49 646.19 71.17C644.43 72.85 643.55 75.73 643.55 79.81V86.41H668.63V98.29H643.55V147.01H628.55Z" fill="black"/>
<path d="M709.42 148.21C703.66 148.21 698.46 146.83 693.82 144.07C689.18 141.31 685.5 137.55 682.78 132.79C680.06 128.03 678.7 122.69 678.7 116.77C678.7 110.85 680.06 105.63 682.78 100.87C685.5 96.11 689.18 92.35 693.82 89.59C698.46 86.83 703.66 85.45 709.42 85.45C715.18 85.45 720.48 86.83 725.08 89.59C729.68 92.35 733.34 96.11 736.06 100.87C738.78 105.63 740.14 110.93 740.14 116.77C740.14 122.61 738.78 128.03 736.06 132.79C733.34 137.55 729.68 141.31 725.08 144.07C720.48 146.83 715.26 148.21 709.42 148.21ZM709.42 135.37C712.54 135.37 715.3 134.57 717.7 132.97C720.1 131.37 721.98 129.17 723.34 126.37C724.7 123.57 725.38 120.41 725.38 116.89C725.38 113.37 724.7 110.11 723.34 107.35C721.98 104.59 720.1 102.41 717.7 100.81C715.3 99.21 712.54 98.41 709.42 98.41C706.3 98.41 703.54 99.21 701.14 100.81C698.74 102.41 696.86 104.59 695.5 107.35C694.14 110.11 693.46 113.29 693.46 116.89C693.46 120.49 694.14 123.57 695.5 126.37C696.86 129.17 698.74 131.37 701.14 132.97C703.54 134.57 706.3 135.37 709.42 135.37Z" fill="black"/>
<path d="M751.06 147.01V135.13H765.58V98.29H751.06V86.41H780.7V101.05C782.78 95.85 785.54 91.95 788.98 89.35C792.42 86.75 796.34 85.45 800.74 85.45C802.58 85.45 804.12 85.59 805.36 85.87C806.6 86.15 808.06 86.61 809.74 87.25V100.93C808.06 100.21 806.22 99.67 804.22 99.31C802.22 98.95 800.26 98.77 798.34 98.77C794.58 98.77 791.14 99.65 788.02 101.41C784.9 103.17 782.46 105.69 780.7 108.97V135.13H796.06V147.01H751.06Z" fill="black"/>
<path d="M876.1 147.01V80.29H852.1V63.01H920.74V80.29H896.74V147.01H876.1Z" fill="#000095"/>
<path d="M946.42 147.97C942.26 147.97 938.56 147.17 935.32 145.57C932.08 143.97 929.56 141.77 927.76 138.97C925.96 136.17 925.06 132.93 925.06 129.25C925.06 125.57 926.02 122.15 927.94 119.47C929.86 116.79 932.62 114.75 936.22 113.35C939.82 111.95 944.14 111.25 949.18 111.25C951.42 111.25 953.7 111.49 956.02 111.97C958.34 112.45 960.86 113.25 963.58 114.37V109.09C963.58 106.05 962.58 103.79 960.58 102.31C958.58 100.83 955.5 100.09 951.34 100.09C949.02 100.09 946.44 100.47 943.6 101.23C940.76 101.99 937.54 103.13 933.94 104.65L926.98 90.85C932.18 88.53 937.12 86.83 941.8 85.75C946.48 84.67 951.1 84.13 955.66 84.13C964.22 84.13 970.88 86.17 975.64 90.25C980.4 94.33 982.78 100.05 982.78 107.41V147.01H963.58V141.13C960.86 143.53 958.14 145.27 955.42 146.35C952.7 147.43 949.7 147.97 946.42 147.97ZM942.94 128.89C942.94 130.89 943.78 132.43 945.46 133.51C947.14 134.59 949.46 135.13 952.42 135.13C954.5 135.13 956.48 134.83 958.36 134.23C960.24 133.63 961.98 132.77 963.58 131.65V124.33C961.82 123.85 960.04 123.47 958.24 123.19C956.44 122.91 954.66 122.77 952.9 122.77C949.78 122.77 947.34 123.29 945.58 124.33C943.82 125.37 942.94 126.89 942.94 128.89Z" fill="#000095"/>
<path d="M1034.4 148.21C1025.84 148.21 1019.36 146.17 1014.96 142.09C1010.56 138.01 1008.36 131.97 1008.36 123.97V100.09H987V85.09H1027.8V121.93C1027.8 125.37 1028.64 127.89 1030.32 129.49C1032 131.09 1034.68 131.89 1038.36 131.89C1040.12 131.89 1041.82 131.73 1043.46 131.41C1045.1 131.09 1046.92 130.53 1048.92 129.73V145.45C1047.64 146.09 1045.56 146.71 1042.68 147.31C1039.8 147.91 1037.04 148.21 1034.4 148.21Z" fill="#000095"/>
<path d="M1060.76 147.01L1049 85.09H1064.24L1069.52 120.01L1076.6 85.09H1090.16L1097.6 120.13L1102.64 85.09H1117.4L1105.88 147.01H1090.52L1083.32 110.41L1076.24 147.01H1060.76Z" fill="#000095"/>
<path d="M1143.2 147.97C1139.04 147.97 1135.34 147.17 1132.1 145.57C1128.86 143.97 1126.34 141.77 1124.54 138.97C1122.74 136.17 1121.84 132.93 1121.84 129.25C1121.84 125.57 1122.8 122.15 1124.72 119.47C1126.64 116.79 1129.4 114.75 1133 113.35C1136.6 111.95 1140.92 111.25 1145.96 111.25C1148.2 111.25 1150.48 111.49 1152.8 111.97C1155.12 112.45 1157.64 113.25 1160.36 114.37V109.09C1160.36 106.05 1159.36 103.79 1157.36 102.31C1155.36 100.83 1152.28 100.09 1148.12 100.09C1145.8 100.09 1143.22 100.47 1140.38 101.23C1137.54 101.99 1134.32 103.13 1130.72 104.65L1123.76 90.85C1128.96 88.53 1133.9 86.83 1138.58 85.75C1143.26 84.67 1147.88 84.13 1152.44 84.13C1161 84.13 1167.66 86.17 1172.42 90.25C1177.18 94.33 1179.56 100.05 1179.56 107.41V147.01H1160.36V141.13C1157.64 143.53 1154.92 145.27 1152.2 146.35C1149.48 147.43 1146.48 147.97 1143.2 147.97ZM1139.72 128.89C1139.72 130.89 1140.56 132.43 1142.24 133.51C1143.92 134.59 1146.24 135.13 1149.2 135.13C1151.28 135.13 1153.26 134.83 1155.14 134.23C1157.02 133.63 1158.76 132.77 1160.36 131.65V124.33C1158.6 123.85 1156.82 123.47 1155.02 123.19C1153.22 122.91 1151.44 122.77 1149.68 122.77C1146.56 122.77 1144.12 123.29 1142.36 124.33C1140.6 125.37 1139.72 126.89 1139.72 128.89Z" fill="#000095"/>
<path d="M1192.28 147.01V85.09H1211.72V93.49C1216.52 87.25 1222.64 84.13 1230.08 84.13C1234.08 84.13 1237.62 85.03 1240.7 86.83C1243.78 88.63 1246.2 91.11 1247.96 94.27C1249.72 97.43 1250.6 101.09 1250.6 105.25V147.01H1231.16V110.89C1231.16 107.37 1230.22 104.57 1228.34 102.49C1226.46 100.41 1223.96 99.37 1220.84 99.37C1219.08 99.37 1217.44 99.67 1215.92 100.27C1214.4 100.87 1213 101.81 1211.72 103.09V147.01H1192.28Z" fill="#000095"/>
<path d="M1018.08 75.73C1014.72 75.73 1011.84 74.53 1009.44 72.13C1007.04 69.73 1005.84 66.85 1005.84 63.49C1005.84 60.13 1007.04 57.25 1009.44 54.85C1011.84 52.45 1014.72 51.25 1018.08 51.25C1021.44 51.25 1024.32 52.45 1026.72 54.85C1029.12 57.25 1030.32 60.13 1030.32 63.49C1030.32 66.85 1029.12 69.73 1026.72 72.13C1024.32 74.53 1021.44 75.73 1018.08 75.73Z" fill="#000095"/>
</g>
<defs>
<clipPath id="clip0_38_1319">
<rect width="1240.82" height="161.46" fill="white" transform="translate(20 23)"/>
</clipPath>
</defs>
</svg>
